<svg xmlns="http://www.w3.org/2000/svg" width="32" height="32" fill="none" viewBox="0 0 32 32"><g clip-path="url(#clip0_3_228)"><g clip-path="url(#clip1_3_228)"><path fill="#F3F3F3" d="M16 32C24.8366 32 32 24.8366 32 16C32 7.16344 24.8366 0 16 0C7.16344 0 0 7.16344 0 16C0 24.8366 7.16344 32 16 32Z"/><path fill="#343434" d="M15.9979 3V12.4613L23.9947 16.0346L15.9979 3Z"/><path fill="#8C8C8C" d="M15.9978 3L8 16.0346L15.9978 12.4613V3Z"/><path fill="#3C3C3B" d="M15.9979 22.166V28.5948L24 17.5239L15.9979 22.166Z"/><path fill="#8C8C8C" d="M15.9978 28.5948V22.165L8 17.5239L15.9978 28.5948Z"/><path fill="#141414" d="M15.9979 20.6779L23.9947 16.0347L15.9979 12.4635V20.6779Z"/><path fill="#393939" d="M8 16.0347L15.9978 20.6779V12.4635L8 16.0347Z"/></g><circle cx="27" cy="5" r="5" fill="url(#paint0_radial_3_228)"/><circle cx="27" cy="5" r="3.75" fill="url(#paint1_radial_3_228)"/><circle cx="27" cy="5" r="2.5" fill="url(#paint2_radial_3_228)"/></g><defs><radialGradient id="paint0_radial_3_228" cx="0" cy="0" r="1" gradientTransform="translate(27 5) rotate(90) scale(5)" gradientUnits="userSpaceOnUse"><stop offset=".74" stop-color="#49266B"/><stop offset="1" stop-color="#976EC0"/></radialGradient><radialGradient id="paint1_radial_3_228" cx="0" cy="0" r="1" gradientTransform="translate(27 5) rotate(90) scale(3.75)" gradientUnits="userSpaceOnUse"><stop offset=".714" stop-color="#3E2755"/><stop offset="1" stop-color="#845EAA"/></radialGradient><radialGradient id="paint2_radial_3_228" cx="0" cy="0" r="1" gradientTransform="translate(27 5) rotate(90) scale(2.5)" gradientUnits="userSpaceOnUse"><stop offset=".495"/><stop offset="1" stop-color="#845EAA"/></radialGradient><clipPath id="clip0_3_228"><rect width="32" height="32" fill="#fff"/></clipPath><clipPath id="clip1_3_228"><rect width="32" height="32" fill="#fff"/></clipPath></defs></svg>